<svg width="14" height="8" viewBox="0 0 14 8" fill="none" xmlns="http://www.w3.org/2000/svg">
<path d="M6.28955 0.459775L0.639549 6.11977C0.54582 6.21274 0.471426 6.32334 0.420657 6.4452C0.369889 6.56706 0.34375 6.69776 0.34375 6.82977C0.34375 6.96179 0.369889 7.09249 0.420657 7.21435C0.471426 7.33621 0.54582 7.44681 0.639548 7.53977C0.826911 7.72602 1.08036 7.83057 1.34455 7.83057C1.60873 7.83057 1.86219 7.72603 2.04955 7.53977L7.04955 2.58978L11.9995 7.53978C12.1869 7.72603 12.4404 7.83057 12.7045 7.83057C12.9687 7.83057 13.2222 7.72603 13.4095 7.53978C13.504 7.44716 13.5792 7.33672 13.6307 7.21484C13.6822 7.09297 13.709 6.96208 13.7095 6.82978C13.709 6.69747 13.6822 6.56659 13.6307 6.44471C13.5792 6.32284 13.504 6.21239 13.4095 6.11978L7.75955 0.459775C7.66591 0.35827 7.55226 0.277262 7.42576 0.221854C7.29926 0.166447 7.16265 0.137842 7.02455 0.137842C6.88645 0.137842 6.74984 0.166447 6.62334 0.221854C6.49684 0.277262 6.38319 0.35827 6.28955 0.459775Z" fill="#1A1A1A"/>
</svg>
